<svg xmlns="http://www.w3.org/2000/svg" width="201" height="32" viewBox="0 0 201 32"><g><g><path fill="#00adbb" d="M157.396 23.146c1.494 0 2.608-.064 3.344-.188.196-.034.376-.064.54-.094h.002c.888-.164.94-.832.936-1.012 0-.008.002-.014.004-.02v-5.45a36.997 36.997 0 0 0-1.636-.272c-.886-.136-2.19-.204-3.912-.204-.852 0-1.622.058-2.31.172-.69.112-1.282.31-1.776.592a2.967 2.967 0 0 0-1.138 1.14c-.264.476-.396 1.064-.396 1.766 0 1.224.488 2.126 1.464 2.704.976.576 2.604.866 4.878.866zm7.066-.752c.006.422-.12 2.034-2.392 2.282l-.484.05a43.642 43.642 0 0 1-4.258.186c-1.84 0-3.316-.16-4.43-.476-1.114-.316-1.982-.73-2.604-1.24-.62-.508-1.032-1.082-1.24-1.716a6.138 6.138 0 0 1-.31-1.904c0-.814.126-1.558.38-2.226.252-.666.684-1.24 1.292-1.716s1.43-.85 2.466-1.122c1.034-.272 2.33-.406 3.894-.406.506 0 1.034.016 1.586.05s1.074.068 1.568.102c.494.034.942.074 1.346.118.4.046.716.082.946.104v-.204c0-1.044-.178-1.904-.534-2.584-.358-.678-.828-1.216-1.414-1.614a5.408 5.408 0 0 0-2.016-.816 12.561 12.561 0 0 0-2.378-.22c-1.286 0-2.332.158-3.138.476-.804.316-1.356.612-1.654.884a1.647 1.647 0 0 1-.432-.476 1.277 1.277 0 0 1-.19-.68c0-.25.064-.464.19-.646.128-.182.282-.34.468-.476.23-.182.734-.384 1.514-.612.782-.226 1.84-.34 3.174-.34 2.732 0 4.858.556 6.376 1.666 1.518 1.11 2.274 2.9 2.274 5.37zm-70.521.752c1.494 0 2.606-.064 3.344-.188.196-.034.376-.064.54-.094h.002c.888-.164.938-.832.936-1.012 0-.008.002-.014.004-.02v-5.45a36.997 36.997 0 0 0-1.636-.272c-.886-.136-2.19-.204-3.914-.204-.85 0-1.62.058-2.308.172-.69.112-1.282.31-1.776.592a2.967 2.967 0 0 0-1.138 1.14c-.264.476-.396 1.064-.396 1.766 0 1.224.488 2.126 1.464 2.704.976.576 2.604.866 4.878.866zm7.066-.752c.006.422-.12 2.034-2.392 2.282l-.486.05a43.57 43.57 0 0 1-4.256.186c-1.84 0-3.316-.16-4.43-.476-1.116-.316-1.982-.73-2.604-1.24-.62-.508-1.032-1.082-1.24-1.716a6.08 6.08 0 0 1-.31-1.904c0-.814.124-1.558.38-2.226.252-.666.684-1.24 1.292-1.716.61-.476 1.43-.85 2.464-1.122 1.034-.272 2.332-.406 3.896-.406.506 0 1.032.016 1.584.05.554.034 1.076.068 1.57.102.494.034.942.074 1.344.118.402.046.718.082.948.104v-.204c0-1.044-.178-1.904-.534-2.584-.358-.678-.828-1.216-1.414-1.614a5.408 5.408 0 0 0-2.016-.816c-.76-.146-1.552-.22-2.378-.22-1.288 0-2.334.158-3.138.476-.804.316-1.356.612-1.654.884a1.647 1.647 0 0 1-.432-.476 1.277 1.277 0 0 1-.19-.68c0-.25.064-.464.19-.646.128-.182.282-.34.468-.476.228-.182.734-.384 1.514-.612.782-.226 1.84-.34 3.172-.34 2.734 0 4.86.556 6.378 1.666 1.516 1.11 2.274 2.9 2.274 5.37zm-40.461-3.6c.31-.835.466-1.753.466-2.751 0-.952-.156-1.852-.466-2.702a6.4 6.4 0 0 0-1.344-2.208 6.474 6.474 0 0 0-2.104-1.478c-.816-.362-1.74-.544-2.774-.544-1.012 0-1.926.174-2.742.526a6.18 6.18 0 0 0-2.084 1.444 6.603 6.603 0 0 0-1.346 2.194 7.776 7.776 0 0 0-.482 2.768c0 .952.162 1.852.482 2.702.324.85.778 1.586 1.362 2.208a6.645 6.645 0 0 0 2.104 1.496c.816.374 1.718.56 2.706.56 1.034 0 1.958-.176 2.774-.526a6.158 6.158 0 0 0 2.104-1.478 6.62 6.62 0 0 0 1.344-2.21m2.24-6.202a8.892 8.892 0 0 1 .672 3.45c0 1.246-.224 2.408-.672 3.482a8.63 8.63 0 0 1-1.878 2.822 8.544 8.544 0 0 1-2.896 1.886c-1.126.454-2.356.68-3.688.68-1.472 0-2.792-.3-3.964-.9-1.172-.6-2.08-1.388-2.724-2.362v8.764c0 .34-.098.618-.294.832-.194.216-.51.324-.948.324-.206 0-.408-.03-.602-.086a3.118 3.118 0 0 1-.432-.152V16.859c0-.544.018-1.026.052-1.444.036-.42.074-.786.122-1.106.206-1.11.562-2.106 1.068-2.988a7.83 7.83 0 0 1 1.896-2.244 8.327 8.327 0 0 1 2.62-1.412 10.161 10.161 0 0 1 3.206-.492c1.332 0 2.562.234 3.688.696 1.126.466 2.092 1.1 2.896 1.904a8.663 8.663 0 0 1 1.878 2.82m137.907-4.86c.196.059.338.109.43.155v15.326c0 1.472-.206 2.736-.62 3.79-.412 1.052-.998 1.918-1.758 2.598-.758.68-1.672 1.178-2.74 1.496-1.068.318-2.27.476-3.602.476-1.546 0-2.856-.114-3.93-.342l-.09-.018a13.896 13.896 0 0 1-1.598-.416c-.034-.01-.068-.018-.104-.03v-.004l-.082-.026c-.248-.082-.494-.186-.682-.374-.292-.288-.316-.722-.228-1.102.058-.256.182-.494.372-.716.096.052.194.094.31.14v-.002c.458.182 1.194.392 2.206.63 1.01.238 2.274.356 3.792.356.85 0 1.672-.09 2.464-.272a5.4 5.4 0 0 0 2.086-.95c.598-.454 1.074-1.076 1.43-1.87.356-.794.534-1.79.534-2.99v-1.564c-.436.862-1.19 1.558-2.258 2.09-1.068.532-2.326.798-3.774.798-2.506 0-4.424-.644-5.756-1.936-1.334-1.292-2-3.048-2-5.268V8.804c0-.34.098-.616.294-.832.194-.216.512-.324.948-.324.206 0 .408.03.602.086.194.058.338.108.432.154v9.344c0 1.814.448 3.224 1.344 4.23.896 1.01 2.308 1.514 4.238 1.514 2 0 3.482-.544 4.448-1.632.966-1.086 1.448-2.57 1.448-4.452V8.804c0-.34.098-.616.294-.832.194-.216.51-.324.948-.324.206 0 .406.03.602.086m-18.894 14.398c.118.234.178.436.178.608 0 .234-.054.43-.162.59-.108.16-.238.292-.39.4-.192.168-.69.398-1.49.686-.404.146-.964.268-1.604.354a14.965 14.965 0 0 1-3.17.106 8.126 8.126 0 0 1-1.76-.284 9.921 9.921 0 0 1-.872-.256c-1.112-.386-2.074-.952-2.876-1.7-.806-.748-1.438-1.666-1.896-2.752-.46-1.088-.69-2.322-.69-3.704 0-1.428.23-2.702.69-3.824.458-1.12 1.09-2.066 1.896-2.838.802-.77 1.768-1.354 2.894-1.75 1.126-.396 2.356-.594 3.69-.594 1.516 0 2.698.152 3.55.46.85.304 1.378.548 1.586.728.16.114.298.256.414.426.114.17.172.38.172.63 0 .18-.064.396-.19.646a1.79 1.79 0 0 1-.57.644c-.39-.34-1.004-.69-1.842-1.054-.84-.362-1.892-.542-3.156-.542-.964 0-1.854.134-2.672.406a5.623 5.623 0 0 0-2.118 1.258c-.598.566-1.064 1.286-1.396 2.158-.334.872-.5 1.898-.5 3.076 0 1.222.184 2.276.55 3.16.368.884.868 1.602 1.502 2.158.532.47 1.152.838 1.85 1.104l.608.202a9.134 9.134 0 0 0 2.522.342c1.218 0 2.166-.136 2.842-.408.098-.04.19-.076.28-.114.718-.32 1.248-.63 1.596-.93.236.172.416.374.534.608m-38.337 2.305v-9.854c0-1.972-.482-3.376-1.448-4.214-.964-.838-2.206-1.258-3.724-1.258a6.52 6.52 0 0 0-2.068.322 4.466 4.466 0 0 0-1.688 1.02c-.484.464-.862 1.066-1.138 1.802-.276.736-.412 1.626-.412 2.666v9.516h-2.276V14.92c0-1.04-.138-1.93-.412-2.666-.278-.736-.65-1.338-1.122-1.802a4.286 4.286 0 0 0-1.672-1.02 6.502 6.502 0 0 0-2.068-.322c-.758 0-1.454.102-2.086.304a4.27 4.27 0 0 0-1.654.986c-.472.454-.834 1.032-1.086 1.734-.252.702-.378 1.552-.378 2.55v9.752h-2.276V13.63c0-1.066.184-2 .552-2.804a5.65 5.65 0 0 1 1.534-2.024 6.628 6.628 0 0 1 2.308-1.222c.886-.272 1.846-.406 2.878-.406 1.472 0 2.792.294 3.966.882 1.172.588 2.09 1.494 2.756 2.718.666-1.178 1.58-2.072 2.742-2.684 1.16-.612 2.452-.916 3.878-.916a9.8 9.8 0 0 1 2.826.39c.874.26 1.632.656 2.276 1.188a5.607 5.607 0 0 1 1.514 1.988c.37.794.554 1.724.554 2.786v10.91zM116.329 8.873c0 .226-.064.43-.19.612a3.18 3.18 0 0 1-.362.442 9.003 9.003 0 0 0-1.482-.51c-.596-.158-1.3-.238-2.102-.238-.944 0-1.73.114-2.362.34-.632.226-1.144.56-1.534 1.002-.39.442-.666.992-.828 1.648-.16.658-.24 1.406-.24 2.242v10.028h-2.274v-11.08c0-1.97.596-3.496 1.792-4.572 1.194-1.076 2.94-1.614 5.24-1.614 1.24 0 2.274.138 3.102.41.826.272 1.24.702 1.24 1.29M66.326 1.156c0-.34.096-.616.292-.832.196-.216.512-.324.948-.324.208 0 .408.03.604.084.196.058.34.11.43.154v9.858c.254-.362.576-.72.966-1.072a6.43 6.43 0 0 1 1.396-.932 8.625 8.625 0 0 1 1.878-.664 10.373 10.373 0 0 1 2.378-.254c2.23 0 3.978.576 5.24 1.732 1.264 1.156 1.896 2.766 1.896 4.826v10.704H80.08v-9.548c0-.906-.088-1.716-.258-2.43-.172-.714-.466-1.32-.88-1.818s-.96-.878-1.636-1.14c-.68-.258-1.536-.39-2.57-.39-1.034 0-1.936.158-2.706.476-.77.318-1.408.748-1.912 1.292a5.367 5.367 0 0 0-1.14 1.902 7.05 7.05 0 0 0-.378 2.312v9.344h-2.274z"/></g><g><path fill="#91c84c" d="M17.948 15.652a4.705 4.705 0 0 0-1.364-1.794c-.596-.486-1.338-.9-2.206-1.232-.856-.328-1.864-.606-2.994-.826l-3.188-.622a9.897 9.897 0 0 1-1.398-.36c-.33-.122-.586-.252-.758-.386-.158-.124-.258-.246-.294-.364a1.467 1.467 0 0 1-.066-.446c0-.18.032-.38.098-.598.058-.2.184-.378.386-.542.208-.168.532-.314.964-.436.442-.122 1.05-.186 1.81-.186.806 0 1.572.07 2.278.204a13.03 13.03 0 0 1 1.896.498c.546.19 1.018.408 1.404.648.388.238.68.454.87.64l.118.116.136-.096c.148-.106.328-.256.534-.448.21-.198.408-.434.584-.7.18-.27.33-.566.456-.882a2.85 2.85 0 0 0 .194-1.034c0-.522-.174-.98-.516-1.362a4.33 4.33 0 0 0-1.022-.85 7.777 7.777 0 0 0-.788-.4 10.91 10.91 0 0 0-1.398-.484 15.376 15.376 0 0 0-2.04-.404c-.79-.112-1.72-.166-2.766-.166-1.456 0-2.748.178-3.834.528-1.094.352-2.012.838-2.73 1.446A5.805 5.805 0 0 0 .696 7.276 6.7 6.7 0 0 0 .17 9.918c0 1.076.21 1.996.626 2.734a5.572 5.572 0 0 0 1.606 1.812 7.917 7.917 0 0 0 2.204 1.096c.81.258 1.628.46 2.434.6l3.07.532c1.022.174 1.726.402 2.088.688.344.27.512.602.512 1.016 0 .214-.036.428-.11.634-.066.186-.212.356-.436.51-.24.164-.592.298-1.044.4-.464.104-1.096.158-1.88.158a14.26 14.26 0 0 1-2.426-.196c-3.48-.532-4.698-1.816-4.866-2.014a.547.547 0 0 0-.022-.024l-.138.098c-.15.106-.332.258-.54.452-.214.2-.412.438-.592.71-.18.27-.334.572-.462.89A2.916 2.916 0 0 0 0 21.062c0 .528.176.99.522 1.376.328.364.678.656 1.034.862.168.104.43.236.796.402a10.529 10.529 0 0 0 1.826.596c.432.112.888.214 1.368.31 1.102.218 2.324.33 3.632.33 2.9 0 5.18-.602 6.782-1.79 1.62-1.198 2.44-2.886 2.44-5.018 0-.95-.152-1.784-.452-2.478m13.214 4.268c-.832 0-1.604-.148-2.296-.442a5.29 5.29 0 0 1-1.798-1.244 5.802 5.802 0 0 1-1.178-1.866 6.28 6.28 0 0 1-.424-2.33c0-.842.144-1.63.424-2.344a5.633 5.633 0 0 1 1.176-1.864c.5-.52 1.104-.934 1.8-1.23a5.845 5.845 0 0 1 2.296-.444c.83 0 1.602.15 2.298.444a5.418 5.418 0 0 1 1.798 1.23c.502.522.896 1.15 1.176 1.864a6.4 6.4 0 0 1 .424 2.344 6.28 6.28 0 0 1-.424 2.33 5.837 5.837 0 0 1-1.178 1.866c-.5.532-1.106.948-1.796 1.244a5.854 5.854 0 0 1-2.298.442M41.644 9.752a10.695 10.695 0 0 0-2.404-3.458 11.415 11.415 0 0 0-3.612-2.31c-1.382-.56-2.884-.844-4.466-.844-1.582 0-3.084.284-4.466.844-1.38.562-2.596 1.338-3.612 2.31a10.652 10.652 0 0 0-2.404 3.458c-.58 1.322-.874 2.764-.874 4.286 0 1.522.294 2.966.874 4.288a10.652 10.652 0 0 0 2.404 3.458 11.41 11.41 0 0 0 3.612 2.308c1.382.562 2.884.846 4.466.846 1.582 0 3.084-.284 4.466-.846a11.387 11.387 0 0 0 3.612-2.308 10.673 10.673 0 0 0 2.404-3.458c.58-1.322.874-2.764.874-4.288 0-1.522-.294-2.964-.874-4.286"/></g></g></svg>